<?xml version="1.0" encoding="utf-8"?>
<!-- Generator: Adobe Illustrator 19.0.0, SVG Export Plug-In . SVG Version: 6.00 Build 0)  -->
<svg version="1.1" id="Layer_1" xmlns="http://www.w3.org/2000/svg" xmlns:xlink="http://www.w3.org/1999/xlink" x="0px" y="0px"
	 viewBox="0 0 1200 800" style="enable-background:new 0 0 1200 800;" xml:space="preserve">
<style type="text/css">
	.st0{fill-rule:evenodd;clip-rule:evenodd;fill:#72BA21;}
	.st1{fill-rule:evenodd;clip-rule:evenodd;fill:#585858;}
	.st2{fill:#585858;}
	.st3{fill:#72B827;}
</style>
<g id="XMLID_7_">
	<path id="XMLID_5_" class="st0" d="M224.9,265.8c-42.4-0.2-89.7,23.3-55.4,65.2c35.8,35,96.6,29.7,35.7,90.6l-19,23l-31.6,25.8
		l-50.8,9l1.1,12.7c12.7,0.6,11.1,7.2,40.8-2.6l113.8-94.5c4.9-4.1,8.2-8.3,10.6-12.9c19-42-35.1-45.7-68.3-60
		c-11.7-7-7.8-16.7-2.1-20.6c5.7-3.9,15.9-5.2,24.8-5.2l51.5,0.1l34.4-30.7L224.9,265.8z"/>
	<path id="XMLID_4_" class="st1" d="M80.2,338.1l58.5,0l-0.8,111.6c1,10.3,4.5,10.1,11.9,10.4c14.6,0.5,42.5-24.7,48.6-29.6
		l-8.9,12.9c-5.5,6.8-12.8,19.2-43.3,46.1c-37.7,25.5-62.2,9-65.9-31.9v-50.6L80.2,338.1z"/>
	<path id="XMLID_3_" class="st1" d="M109.7,325.4c16.2,0,29.4-13.2,29.4-29.4c0-16.2-13.2-29.4-29.4-29.4
		c-16.2,0-29.4,13.2-29.4,29.4C80.4,312.3,93.6,325.4,109.7,325.4z"/>
	<polygon id="XMLID_2_" class="st0" points="323.3,265.4 286.7,296.1 308.7,296.2 346,265.4 	"/>
	<polygon id="XMLID_6_" class="st0" points="360.7,265.4 323.6,296.2 337.7,296.2 374.5,265.4 	"/>
</g>
<path id="XMLID_9_" class="st2" d="M385.2,342.9c-2.9,0-5.4-1-7.5-2.9c-2.1-1.9-3.1-4.3-3.1-7.3c0-2.9,1-5.4,3.1-7.3
	c2.1-2,4.6-2.9,7.5-2.9c3,0,5.6,1,7.7,2.9c2.1,2,3.2,4.4,3.2,7.3c0,2.8-1.1,5.2-3.2,7.1C390.8,341.9,388.2,342.9,385.2,342.9z
	 M394,438.6h-17.9v-79.1H394V438.6z"/>
<path id="XMLID_12_" class="st2" d="M487.9,438.6H470v-44.6c0-14.8-5.2-22.2-15.7-22.2c-5.5,0-10,2-13.5,6.1
	c-3.6,4.1-5.3,9.3-5.3,15.5v45.1h-18v-79.1h18v13.1h0.3c5.9-10,14.5-15,25.7-15c8.6,0,15.2,2.8,19.7,8.4c4.5,5.6,6.8,13.7,6.8,24.2
	V438.6z"/>
<path id="XMLID_14_" class="st2" d="M551.5,437.8c-3.5,1.8-8.1,2.6-13.8,2.6c-15.3,0-23-7.4-23-22.1v-44.7h-13.2v-14.1h13.2v-18.3
	l17.9-5.1v23.4h18.9v14.1h-18.9v39.6c0,4.7,0.8,8,2.5,10s4.5,3,8.5,3c3,0,5.7-0.9,7.9-2.6V437.8z"/>
<path id="XMLID_16_" class="st2" d="M633,404h-53.9c0.2,7.3,2.5,13,6.8,16.9c4.3,4,10.2,5.9,17.7,5.9c8.4,0,16.2-2.5,23.3-7.6v14.4
	c-7.2,4.5-16.7,6.8-28.6,6.8c-11.6,0-20.8-3.6-27.4-10.8c-6.6-7.2-9.9-17.3-9.9-30.3c0-12.3,3.6-22.3,10.9-30.1
	c7.3-7.8,16.3-11.6,27.2-11.6s19.2,3.5,25.1,10.4c5.9,7,8.9,16.6,8.9,29V404z M615.7,391.3c-0.1-6.4-1.6-11.4-4.6-15
	c-3-3.6-7.1-5.4-12.4-5.4c-5.2,0-9.5,1.9-13.1,5.6c-3.6,3.8-5.8,8.7-6.6,14.8H615.7z"/>
<path id="XMLID_19_" class="st2" d="M668.1,438.6h-18V321.5h18V438.6z"/>
<path id="XMLID_21_" class="st2" d="M758.4,404h-53.9c0.2,7.3,2.5,13,6.8,16.9c4.3,4,10.2,5.9,17.7,5.9c8.4,0,16.2-2.5,23.3-7.6
	v14.4c-7.2,4.5-16.7,6.8-28.6,6.8c-11.6,0-20.8-3.6-27.4-10.8c-6.6-7.2-9.9-17.3-9.9-30.3c0-12.3,3.6-22.3,10.9-30.1
	c7.3-7.8,16.3-11.6,27.2-11.6s19.2,3.5,25.1,10.4c5.9,7,8.9,16.6,8.9,29V404z M741.1,391.3c-0.1-6.4-1.6-11.4-4.6-15
	c-3-3.6-7.1-5.4-12.4-5.4c-5.2,0-9.5,1.9-13.1,5.6c-3.6,3.8-5.8,8.7-6.6,14.8H741.1z"/>
<path id="XMLID_24_" class="st2" d="M832.1,435c-6.3,3.7-13.8,5.5-22.5,5.5c-11.7,0-21.2-3.7-28.4-11c-7.2-7.3-10.8-16.9-10.8-28.5
	c0-13,3.9-23.5,11.6-31.4c7.8-7.9,18.1-11.9,31.1-11.9c7.2,0,13.6,1.3,19.1,3.8v16.7c-5.5-4.1-11.4-6.2-17.6-6.2
	c-7.6,0-13.8,2.6-18.6,7.7c-4.8,5.1-7.3,11.8-7.3,20.1c0,8.2,2.3,14.7,6.8,19.4c4.6,4.7,10.7,7.1,18.3,7.1c6.4,0,12.5-2.3,18.2-6.9
	V435z"/>
<path id="XMLID_26_" class="st2" d="M891.6,437.8c-3.5,1.8-8.1,2.6-13.8,2.6c-15.3,0-23-7.4-23-22.1v-44.7h-13.2v-14.1h13.2v-18.3
	l17.9-5.1v23.4h18.9v14.1h-18.9v39.6c0,4.7,0.8,8,2.5,10s4.5,3,8.5,3c3,0,5.7-0.9,7.9-2.6V437.8z"/>
<path id="XMLID_28_" class="st3" d="M902.1,436.2v-16.6c6.7,5.1,14.1,7.6,22.2,7.6c10.8,0,16.2-3.2,16.2-9.6c0-1.8-0.5-3.3-1.4-4.6
	c-0.9-1.3-2.2-2.4-3.7-3.4c-1.6-1-3.4-1.9-5.6-2.6c-2.1-0.8-4.5-1.6-7.1-2.6c-3.2-1.3-6.2-2.7-8.8-4.1c-2.6-1.4-4.8-3.1-6.5-4.9
	c-1.7-1.8-3-3.9-3.9-6.2c-0.9-2.3-1.3-5-1.3-8.1c0-3.8,0.9-7.2,2.7-10.1c1.8-2.9,4.2-5.4,7.3-7.3c3-2,6.5-3.5,10.4-4.5
	s7.9-1.5,12-1.5c7.3,0,13.9,1.1,19.6,3.3v15.7c-5.6-3.8-11.9-5.7-19.2-5.7c-2.3,0-4.3,0.2-6.1,0.7c-1.8,0.5-3.4,1.1-4.7,1.9
	c-1.3,0.8-2.3,1.8-3,3c-0.7,1.2-1.1,2.4-1.1,3.8c0,1.7,0.4,3.1,1.1,4.3c0.7,1.2,1.8,2.2,3.2,3.1c1.4,0.9,3.1,1.7,5.1,2.5
	c2,0.7,4.3,1.6,6.8,2.4c3.4,1.4,6.5,2.8,9.2,4.2c2.7,1.4,5,3.1,6.9,4.9c1.9,1.8,3.4,3.9,4.4,6.3c1,2.4,1.5,5.2,1.5,8.5
	c0,4-0.9,7.5-2.8,10.5c-1.9,3-4.3,5.5-7.4,7.4c-3.1,2-6.7,3.4-10.7,4.4c-4,1-8.3,1.4-12.8,1.4C915.9,440.5,908.4,439.1,902.1,436.2z
	"/>
<path id="XMLID_30_" class="st3" d="M1010.3,440.5c-12.2,0-22-3.7-29.2-11.1c-7.3-7.4-10.9-17.2-10.9-29.4
	c0-13.3,3.8-23.7,11.4-31.1c7.6-7.5,17.8-11.2,30.7-11.2c12.4,0,22,3.6,28.9,10.9s10.4,17.3,10.4,30.2c0,12.6-3.7,22.7-11.2,30.3
	C1032.9,436.7,1022.9,440.5,1010.3,440.5z M1011.2,372c-7,0-12.5,2.4-16.6,7.3c-4.1,4.9-6.1,11.6-6.1,20.2c0,8.3,2.1,14.8,6.2,19.6
	c4.1,4.8,9.6,7.1,16.5,7.1c7.1,0,12.5-2.3,16.3-7c3.8-4.7,5.7-11.4,5.7-20c0-8.7-1.9-15.4-5.7-20.2
	C1023.7,374.3,1018.3,372,1011.2,372z"/>
<path id="XMLID_33_" class="st3" d="M1111.9,336.1c-2.4-1.4-5.2-2.1-8.3-2.1c-8.7,0-13.1,4.9-13.1,14.8v10.7h18.4v14.1h-18.3v65.1
	h-17.9v-65.1h-13.5v-14.1h13.5v-12.8c0-8.3,2.7-14.9,8.2-19.7c5.5-4.8,12.3-7.2,20.5-7.2c4.4,0,7.9,0.5,10.5,1.5V336.1z"/>
<path id="XMLID_35_" class="st3" d="M1166.3,437.8c-3.5,1.8-8.1,2.6-13.8,2.6c-15.3,0-23-7.4-23-22.1v-44.7h-13.2v-14.1h13.2v-18.3
	l17.9-5.1v23.4h18.9v14.1h-18.9v39.6c0,4.7,0.8,8,2.5,10s4.5,3,8.5,3c3,0,5.7-0.9,7.9-2.6V437.8z"/>
</svg>
