<?xml version="1.0" encoding="utf-8"?>
<!-- Generator: Adobe Illustrator 19.0.0, SVG Export Plug-In . SVG Version: 6.00 Build 0)  -->
<svg version="1.1" id="Layer_1" xmlns="http://www.w3.org/2000/svg" xmlns:xlink="http://www.w3.org/1999/xlink" x="0px" y="0px"
	 viewBox="0 0 1200 800" style="enable-background:new 0 0 1200 800;" xml:space="preserve">
<style type="text/css">
	.st0{fill-rule:evenodd;clip-rule:evenodd;fill:#72BA21;}
	.st1{fill-rule:evenodd;clip-rule:evenodd;fill:#585858;}
</style>
<g id="XMLID_7_">
	<path id="XMLID_5_" class="st0" d="M596.3,219.8c-64.9-0.3-137.3,35.7-84.8,99.7c54.8,53.6,147.9,45.4,54.6,138.7L537,493.4
		l-48.3,39.5l-77.8,13.7l1.7,19.4c19.5,1,17,11.1,62.5-4l174.2-144.7c7.6-6.3,12.5-12.7,16.3-19.7c29.1-64.3-53.8-70-104.6-91.9
		c-18-10.7-11.9-25.6-3.2-31.6c8.7-6,24.4-8,38-8l78.8,0.1l52.7-47L596.3,219.8z"/>
	<path id="XMLID_4_" class="st1" d="M374.7,330.5l89.5,0l-1.2,170.8c1.6,15.8,6.9,15.5,18.2,15.9c22.4,0.8,65.1-37.8,74.3-45.3
		L542,491.7c-8.4,10.4-19.5,29.4-66.3,70.6c-57.7,39-95.2,13.8-101-48.8V436L374.7,330.5z"/>
	<path id="XMLID_3_" class="st1" d="M420,311.1c24.8,0,44.9-20.2,44.9-44.9c0-24.8-20.2-44.9-44.9-44.9c-24.8,0-44.9,20.2-44.9,44.9
		C375,290.9,395.2,311.1,420,311.1z"/>
	<polygon id="XMLID_2_" class="st0" points="746.8,219.2 690.9,266.1 724.6,266.3 781.7,219.2 	"/>
	<polygon id="XMLID_6_" class="st0" points="804.1,219.2 747.4,266.3 768.9,266.3 825.3,219.2 	"/>
</g>
</svg>
